<svg width="25" height="37" viewBox="0 0 25 37" fill="none" xmlns="http://www.w3.org/2000/svg">
<path d="M20.4569 25.9452C20.0702 25.9039 19.7244 26.183 19.6832 26.568L18.7697 35.1057H6.16355L5.26249 26.6828C5.22129 26.2977 4.875 26.0185 4.48877 26.0599C4.10262 26.101 3.82305 26.4465 3.86426 26.8316L4.83239 35.8813C4.8705 36.2377 5.17207 36.5081 5.53151 36.5081H19.4019C19.7613 36.5081 20.0629 36.2377 20.101 35.8813L21.0815 26.7168C21.1226 26.3318 20.843 25.9863 20.4569 25.9452Z" fill="#D8D8D8"/>
<path d="M23.7161 5.60533H22.1428L20.9042 2.56848C20.7964 2.30427 20.5389 2.13149 20.2529 2.13149H15.9389L14.7308 0.831111C14.5977 0.687855 14.4108 0.606445 14.215 0.606445H10.7182C10.5224 0.606445 10.3355 0.687855 10.2025 0.831111L8.99439 2.13149H4.68044C4.3944 2.13149 4.13692 2.30427 4.02913 2.56848L2.79044 5.60533H1.21719C0.828858 5.60533 0.514069 5.91926 0.514069 6.30653V9.31981C0.514069 9.70709 0.828858 10.021 1.21719 10.021H2.06572L2.94843 18.272C2.98963 18.6571 3.33592 18.9361 3.72215 18.8948C4.1083 18.8537 4.38787 18.5082 4.34666 18.1232L3.47985 10.021H21.4533L20.5836 18.1501C20.5424 18.5352 20.822 18.8807 21.2081 18.9217C21.2335 18.9245 21.2586 18.9258 21.2835 18.9258C21.6383 18.9258 21.9433 18.6587 21.9818 18.2989L22.8674 10.021H23.7159C24.1043 10.021 24.4191 9.70709 24.4191 9.31981V6.30653C24.4192 5.91926 24.1044 5.60533 23.7161 5.60533V5.60533ZM5.15343 3.5339H9.30144C9.49726 3.5339 9.68415 3.45249 9.81719 3.30924L11.0253 2.00885H13.908L15.1161 3.30924C15.2492 3.45242 15.4361 3.5339 15.6318 3.5339H19.7798L20.6247 5.60533H4.30855L5.15343 3.5339ZM23.0129 8.61861H1.92032V7.00773H23.0129V8.61861Z" fill="#D8D8D8"/>
<path d="M1.70276 15.9568L3.10479 29.0619H21.8284L23.2305 15.9568H1.70276ZM12.4666 25.1437C11.0376 25.1437 9.87912 23.9884 9.87912 22.5633C9.87912 21.1381 11.0376 19.9828 12.4666 19.9828C13.8956 19.9828 15.0541 21.1381 15.0541 22.5633C15.0541 23.9884 13.8956 25.1437 12.4666 25.1437Z" fill="#D8D8D8"/>
<path d="M12.4666 25.8448C10.6521 25.8448 9.17599 24.3727 9.17599 22.5631C9.17599 20.7536 10.6521 19.2815 12.4666 19.2815C14.2811 19.2815 15.7573 20.7536 15.7573 22.5631C15.7573 24.3727 14.2811 25.8448 12.4666 25.8448ZM12.4666 20.684C11.4276 20.684 10.5822 21.527 10.5822 22.5632C10.5822 23.5994 11.4275 24.4424 12.4666 24.4424C13.5057 24.4424 14.351 23.5994 14.351 22.5632C14.351 21.527 13.5056 20.684 12.4666 20.684Z" fill="#D8D8D8"/>
</svg>
