<svg width="25" height="37" viewBox="0 0 25 37" fill="none" xmlns="http://www.w3.org/2000/svg">
<path d="M20.7902 25.9452C20.4035 25.9039 20.0577 26.183 20.0165 26.568L19.1031 35.1057H6.49689L5.59584 26.6828C5.55463 26.2977 5.20834 26.0185 4.82212 26.0599C4.43596 26.101 4.1564 26.4465 4.1976 26.8316L5.16573 35.8813C5.20384 36.2377 5.50541 36.5081 5.86485 36.5081H19.7353C20.0947 36.5081 20.3963 36.2377 20.4344 35.8813L21.4148 26.7168C21.4559 26.3318 21.1763 25.9863 20.7902 25.9452Z" fill="#324A59"/>
<path d="M24.0494 5.60533H22.4762L21.2375 2.56848C21.1298 2.30427 20.8723 2.13149 20.5862 2.13149H16.2723L15.0642 0.831111C14.9311 0.687855 14.7442 0.606445 14.5484 0.606445H11.0516C10.8558 0.606445 10.6689 0.687855 10.5358 0.831111L9.32773 2.13149H5.01378C4.72775 2.13149 4.47026 2.30427 4.36247 2.56848L3.12378 5.60533H1.55054C1.1622 5.60533 0.847412 5.91926 0.847412 6.30653V9.31981C0.847412 9.70709 1.1622 10.021 1.55054 10.021H2.39907L3.28177 18.272C3.32297 18.6571 3.66926 18.9361 4.05549 18.8948C4.44165 18.8537 4.72121 18.5082 4.68001 18.1232L3.81319 10.021H21.7866L20.9169 18.1501C20.8757 18.5352 21.1553 18.8807 21.5414 18.9217C21.5668 18.9245 21.592 18.9258 21.6169 18.9258C21.9717 18.9258 22.2767 18.6587 22.3152 18.2989L23.2007 10.021H24.0493C24.4376 10.021 24.7524 9.70709 24.7524 9.31981V6.30653C24.7525 5.91926 24.4377 5.60533 24.0494 5.60533V5.60533ZM5.48677 3.5339H9.63479C9.83061 3.5339 10.0175 3.45249 10.1505 3.30924L11.3586 2.00885H14.2413L15.4494 3.30924C15.5825 3.45242 15.7694 3.5339 15.9652 3.5339H20.1132L20.9581 5.60533H4.6419L5.48677 3.5339ZM23.3463 8.61861H2.25366V7.00773H23.3463V8.61861Z" fill="#324A59"/>
<path d="M2.0361 15.9568L3.43813 29.0619H22.1618L23.5638 15.9568H2.0361ZM12.8 25.1437C11.3709 25.1437 10.2125 23.9884 10.2125 22.5633C10.2125 21.1381 11.3709 19.9828 12.8 19.9828C14.229 19.9828 15.3875 21.1381 15.3875 22.5633C15.3875 23.9884 14.229 25.1437 12.8 25.1437Z" fill="#E4D5C9"/>
<path d="M12.8 25.8448C10.9855 25.8448 9.50934 24.3727 9.50934 22.5631C9.50934 20.7536 10.9855 19.2815 12.8 19.2815C14.6145 19.2815 16.0906 20.7536 16.0906 22.5631C16.0906 24.3727 14.6145 25.8448 12.8 25.8448ZM12.8 20.684C11.761 20.684 10.9156 21.527 10.9156 22.5632C10.9156 23.5994 11.7609 24.4424 12.8 24.4424C13.839 24.4424 14.6843 23.5994 14.6843 22.5632C14.6843 21.527 13.839 20.684 12.8 20.684Z" fill="#324A59"/>
</svg>
