<svg width="24" height="25" viewBox="0 0 24 25" fill="none" xmlns="http://www.w3.org/2000/svg">
<path fill-rule="evenodd" clip-rule="evenodd" d="M20.7508 22.1726H13.4978C13.0838 22.1726 12.7478 21.8366 12.7478 21.4226C12.7478 21.0086 13.0838 20.6726 13.4978 20.6726H20.7508C21.1648 20.6726 21.5008 21.0086 21.5008 21.4226C21.5008 21.8366 21.1648 22.1726 20.7508 22.1726Z" fill="#E0C6BB"/>
<mask id="mask0_95_1255" style="mask-type:luminance" maskUnits="userSpaceOnUse" x="2" y="3" width="18" height="20">
<path fill-rule="evenodd" clip-rule="evenodd" d="M2.00032 3.23315H19.1809V22.1727H2.00032V3.23315Z" fill="white"/>
</mask>
<g mask="url(#mask0_95_1255)">
<path fill-rule="evenodd" clip-rule="evenodd" d="M13.1106 5.2498L3.69559 17.0248C3.52459 17.2388 3.46159 17.5148 3.52459 17.7798L4.20559 20.6648L7.2446 20.6268C7.53359 20.6238 7.80059 20.4948 7.97759 20.2748C11.1946 16.2498 17.3276 8.5758 17.5016 8.3508C17.6656 8.0848 17.7296 7.7088 17.6436 7.3468C17.5556 6.9758 17.3246 6.6608 16.9916 6.4598C16.9206 6.4108 15.2356 5.1028 15.1836 5.0618C14.5496 4.5538 13.6246 4.6418 13.1106 5.2498ZM3.61359 22.1728C3.26659 22.1728 2.96459 21.9348 2.88359 21.5958L2.06459 18.1248C1.89559 17.4058 2.06359 16.6638 2.52459 16.0878L11.9446 4.3058C11.9486 4.3018 11.9516 4.2968 11.9556 4.2928C12.9886 3.0578 14.8566 2.8758 16.1166 3.8868C16.1666 3.9258 17.8396 5.2258 17.8396 5.2258C18.4476 5.5878 18.9226 6.2348 19.1026 7.0008C19.2816 7.7588 19.1516 8.5408 18.7346 9.2018C18.7036 9.2508 18.6766 9.2928 9.14859 21.2128C8.68959 21.7848 8.00159 22.1178 7.26259 22.1268L3.62359 22.1728H3.61359Z" fill="#E0C6BB"/>
</g>
<path fill-rule="evenodd" clip-rule="evenodd" d="M16.2234 11.9178C16.0634 11.9178 15.9034 11.8668 15.7664 11.7628L10.3144 7.57478C9.98639 7.32278 9.92439 6.85278 10.1764 6.52278C10.4294 6.19478 10.8994 6.13378 11.2284 6.38578L16.6814 10.5728C17.0094 10.8248 17.0714 11.2958 16.8184 11.6248C16.6714 11.8168 16.4484 11.9178 16.2234 11.9178Z" fill="#E0C6BB"/>
</svg>
