<svg width="25" height="31" viewBox="0 0 25 31" fill="none" xmlns="http://www.w3.org/2000/svg">
<path d="M22.3333 4.42807H22.2475L22.2746 4.13211C22.2752 4.12564 22.2757 4.11918 22.2762 4.11271C22.3605 2.91346 21.9774 1.72683 21.2513 0.938462C20.6939 0.333244 19.9726 0 19.2201 0C19.2197 0 19.2194 0 19.2191 0L5.5311 0.00555911C4.77845 0.00586123 4.0568 0.339589 3.49907 0.94523C2.77288 1.7339 2.38933 2.92053 2.47307 4.11954C2.47355 4.12601 2.47409 4.13247 2.47463 4.13894L2.50163 4.43508C1.38382 4.52082 0.5 5.46756 0.5 6.61987V7.9633C0.5 9.17186 1.47199 10.1551 2.66673 10.1551H3.02334L4.84953 30.1769C4.89206 30.6433 5.27884 31 5.74178 31H5.7422L18.9959 30.9942C19.4586 30.994 19.845 30.6375 19.8877 30.1715L21.7225 10.1552H22.3333C23.528 10.1552 24.5 9.17192 24.5 7.96336V6.61993C24.5 5.41131 23.528 4.42807 22.3333 4.42807ZM4.81035 2.18074C4.96255 2.01548 5.21128 1.81837 5.53176 1.81825L19.2198 1.81275H19.2201C19.5401 1.81275 19.7884 2.00925 19.9403 2.17415C20.3318 2.59918 20.5367 3.27178 20.4893 3.97494L20.4478 4.42807H4.3007L4.26008 3.98268C4.21307 3.27939 4.41849 2.60638 4.81035 2.18074ZM18.8058 22.3412H5.93454L5.22281 14.5383H19.521L18.8058 22.3412ZM6.55894 29.1869L6.09989 24.154H18.6397L18.1788 29.1818L6.55894 29.1869ZM19.6872 12.7256H5.05747L4.82301 10.1552H19.9228L19.6872 12.7256ZM22.708 7.96336C22.708 8.17237 22.5399 8.34241 22.3333 8.34241H2.66679C2.46017 8.34241 2.29208 8.17237 2.29208 7.96336V6.61993C2.29208 6.41092 2.46017 6.24088 2.66679 6.24088H22.3332C22.5398 6.24088 22.7079 6.41092 22.7079 6.61993V7.96336H22.708Z" fill="black"/>
</svg>
