<svg width="25" height="25" viewBox="0 0 25 25" fill="none" xmlns="http://www.w3.org/2000/svg">
<path d="M19.7087 22.4573H4.08368V24.2328H19.7087V22.4573Z" fill="#E0C6BB"/>
<path d="M14.7079 8.16382H9.23321C8.74285 8.16382 8.3454 8.56127 8.3454 9.05163C8.3454 9.54199 8.74285 9.93944 9.23321 9.93944H14.7079C15.1982 9.93944 15.5957 9.54199 15.5957 9.05163C15.5957 8.56127 15.1982 8.16382 14.7079 8.16382Z" fill="#E0C6BB"/>
<path d="M18.8509 12.3069H9.23321C8.74285 12.3069 8.3454 12.7043 8.3454 13.1947C8.3454 13.6851 8.74285 14.0825 9.23321 14.0825H18.8509C19.3413 14.0825 19.7387 13.6851 19.7387 13.1947C19.7387 12.7043 19.3412 12.3069 18.8509 12.3069Z" fill="#E0C6BB"/>
<path d="M23.6246 0.341033C23.3059 0.197797 22.9334 0.254346 22.6718 0.485448L20.1857 2.68479L17.6966 0.459084C17.3595 0.157519 16.85 0.157519 16.5129 0.459084L14.0271 2.6821L11.541 0.459084C11.2039 0.157519 10.6946 0.157519 10.3575 0.459084L7.86847 2.68479L5.38237 0.485448C5.12109 0.254629 4.74821 0.19808 4.42948 0.341033C4.11107 0.484552 3.90629 0.80121 3.90629 1.15041V16.953H0.88781C0.397449 16.953 0 17.3504 0 17.8408V20.0011C0 22.3345 1.89839 24.2329 4.23177 24.2329V22.4573C2.87732 22.4573 1.77557 21.3553 1.77557 20.0011V18.7286H15.6843V20.0011C15.6843 22.3345 17.5826 24.2329 19.916 24.2329C22.2494 24.2329 24.1478 22.3345 24.1478 20.0011V1.15036C24.1478 0.801163 23.9431 0.484552 23.6246 0.341033ZM22.3723 20.0011C22.3723 21.3553 21.2702 22.4573 19.9161 22.4573C18.5619 22.4573 17.4599 21.3553 17.4599 20.0011V17.8408C17.4599 17.3504 17.0624 16.953 16.5721 16.953H5.68186V3.12096L7.28373 4.53818C7.62109 4.83649 8.12829 4.83498 8.46358 4.53493L10.9494 2.31191L13.4352 4.53464C13.7723 4.83621 14.2818 4.83621 14.6189 4.53464L17.105 2.31163L19.5908 4.53464C19.9264 4.8347 20.4336 4.83588 20.7707 4.5379L22.3723 3.12101V20.0011Z" fill="#E0C6BB"/>
</svg>
