<svg width="18" height="22" viewBox="0 0 18 22" fill="none" xmlns="http://www.w3.org/2000/svg">
<path d="M15.9652 3.1425H15.9045L15.9237 2.93246C15.9241 2.92788 15.9245 2.92329 15.9248 2.9187C15.9845 2.06761 15.7131 1.22549 15.1988 0.666005C14.804 0.236496 14.2931 0 13.7601 0C13.7598 0 13.7603 0 13.7601 0L4.0637 0.00394517C3.53057 0.00415958 3.0194 0.240999 2.62434 0.670808C2.10996 1.23051 1.83827 2.07263 1.89759 2.92354C1.89793 2.92813 1.89831 2.93272 1.89869 2.93731L1.91782 3.14748C1.12604 3.20833 0.5 3.88021 0.5 4.69797V5.65137C0.5 6.50906 1.18849 7.20685 2.03477 7.20685H2.28737L3.58092 21.4159C3.61105 21.7468 3.88501 22 4.21293 22L13.6013 21.9959C13.929 21.9958 14.2027 21.7427 14.233 21.412L15.5326 7.20689H15.9652C16.8115 7.20689 17.5 6.50911 17.5 5.65142V4.69802C17.5 3.84028 16.8115 3.1425 15.9652 3.1425ZM3.55316 1.54762C3.66097 1.43034 3.83716 1.29046 4.06416 1.29037L13.7599 1.28647C13.9865 1.28647 14.1626 1.42592 14.2702 1.54295C14.5475 1.84458 14.6927 2.32191 14.6591 2.82093L14.6297 3.1425H3.19216L3.16339 2.82642C3.13009 2.32731 3.2756 1.84969 3.55316 1.54762ZM13.4666 15.8551H4.34947L3.84532 10.3175H13.9732L13.4666 15.8551ZM4.79175 20.7133L4.46659 17.1415H13.3489L13.0225 20.7097L4.79175 20.7133ZM14.091 9.03106H3.72821L3.56213 7.20689H14.2578L14.091 9.03106ZM16.2307 5.65142C16.2307 5.79975 16.1116 5.92042 15.9652 5.92042H2.03481C1.88846 5.92042 1.76939 5.79975 1.76939 5.65142V4.69802C1.76939 4.54969 1.88846 4.42901 2.03481 4.42901H15.9652C16.1115 4.42901 16.2306 4.54969 16.2306 4.69802L16.2307 5.65142Z" fill="#A5A5A5"/>
</svg>
